<?xml version="1.0" encoding="UTF-8" standalone="no"?>
<!-- Created with Inkscape (http://www.inkscape.org/) -->

<svg
   xmlns:dc="http://purl.org/dc/elements/1.1/"
   xmlns:cc="http://creativecommons.org/ns#"
   xmlns:rdf="http://www.w3.org/1999/02/22-rdf-syntax-ns#"
   xmlns:svg="http://www.w3.org/2000/svg"
   xmlns="http://www.w3.org/2000/svg"
   xmlns:sodipodi="http://sodipodi.sourceforge.net/DTD/sodipodi-0.dtd"
   xmlns:inkscape="http://www.inkscape.org/namespaces/inkscape"
   width="32px"
   height="32px"
   id="svg3243"
   version="1.1"
   inkscape:version="0.48.4 r9939"
   sodipodi:docname="off.svg">
  <defs
     id="defs3245" />
  <sodipodi:namedview
     id="base"
     pagecolor="#ffffff"
     bordercolor="#666666"
     borderopacity="1.0"
     inkscape:pageopacity="0.0"
     inkscape:pageshadow="2"
     inkscape:zoom="16"
     inkscape:cx="16.939547"
     inkscape:cy="16.062523"
     inkscape:current-layer="layer1"
     showgrid="true"
     inkscape:grid-bbox="true"
     inkscape:document-units="px"
     inkscape:snap-global="false"
     inkscape:window-width="884"
     inkscape:window-height="545"
     inkscape:window-x="882"
     inkscape:window-y="329"
     inkscape:window-maximized="0">
    <inkscape:grid
       type="xygrid"
       id="grid3273" />
  </sodipodi:namedview>
  <metadata
     id="metadata3248">
    <rdf:RDF>
      <cc:Work
         rdf:about="">
        <dc:format>image/svg+xml</dc:format>
        <dc:type
           rdf:resource="http://purl.org/dc/dcmitype/StillImage" />
        <dc:title />
      </cc:Work>
    </rdf:RDF>
  </metadata>
  <g
     id="layer1"
     inkscape:label="Layer 1"
     inkscape:groupmode="layer">
    <path
       style="font-size:72px;font-style:normal;font-variant:normal;font-weight:normal;font-stretch:normal;text-align:start;line-height:125%;letter-spacing:0px;word-spacing:0px;writing-mode:lr-tb;text-anchor:start;fill:#a40000;stroke:#eeeeec;stroke-width:1.50000000000000000;stroke-miterlimit:4;stroke-opacity:1;stroke-dasharray:none;font-family:FontAwesome;-inkscape-font-specification:FontAwesome;fill-opacity:1"
       d="m 26.607099,9.8590516 c 1.095245,1.8715414 1.642877,3.9185224 1.642901,6.1409504 -2.4e-5,2.222445 -0.547656,4.274746 -1.642901,6.156901 -1.095291,1.87153 -2.584007,3.354927 -4.466146,4.450195 C 20.269405,27.702363 18.222426,28.249996 16,28.25 13.77755,28.249996 11.725251,27.702363 9.8430986,26.607098 7.9715637,25.51183 6.4881674,24.028433 5.3929018,22.156903 4.2976327,20.274748 3.75,18.222447 3.75,16.000002 3.75,13.777574 4.2976327,11.730593 5.3929018,9.8590516 6.4881674,7.9769071 7.9715637,6.4881926 9.8430986,5.392906 11.725251,4.2976563 13.77755,3.7500236 16,3.75 c 2.222426,2.36e-5 4.269405,0.5476563 6.140953,1.642906 1.882139,1.0952866 3.370855,2.5840011 4.466146,4.4661456"
       id="path3275"
       inkscape:connector-curvature="0" />
    <g
       id="g3758"
       transform="matrix(0.865313,0,0,0.865313,2.163376,2.175981)"
       style="stroke:#eeeeec;fill:#eeeeec">
      <rect
         transform="matrix(-0.70710678,-0.70710678,-0.70710678,0.70710678,0,0)"
         style="fill:#eeeeec;fill-opacity:1;stroke:#eeeeec"
         id="rect4057"
         width="18"
         height="3"
         x="-31.781626"
         y="-1.4338233"
         ry="0" />
      <rect
         transform="matrix(0.70710678,-0.70710678,0.70710678,0.70710678,0,0)"
         ry="0"
         y="21.281626"
         x="-9.0661755"
         height="3"
         width="18"
         id="rect4059"
         style="fill:#eeeeec;fill-opacity:1;stroke:#eeeeec" />
    </g>
  </g>
</svg>
