/* XPM */
static char * leap_client_xpm[] = {
"32 26 252 2",
"  	c None",
". 	c #370F14",
"+ 	c #942F2F",
"@ 	c #E1415B",
"# 	c #C616A8",
"$ 	c #540A45",
"% 	c #DC831E",
"& 	c #FF4E54",
"* 	c #FF554B",
"= 	c #EB1BC5",
"- 	c #F81ECD",
"; 	c #30082A",
"> 	c #202E3A",
", 	c #C19C00",
"' 	c #F5961F",
") 	c #FF5051",
"! 	c #F02AA7",
"~ 	c #EB1DC2",
"{ 	c #646BC6",
"] 	c #3A1445",
"^ 	c #2D7CE5",
"/ 	c #458AD0",
"( 	c #002745",
"_ 	c #2C9BCB",
": 	c #03353B",
"< 	c #B28F00",
"[ 	c #EEC100",
"} 	c #F69122",
"| 	c #F6348B",
"1 	c #B051D4",
"2 	c #207AFF",
"3 	c #5A1B1E",
"4 	c #9D436B",
"5 	c #7E68AC",
"6 	c #3F3161",
"7 	c #03111D",
"8 	c #3589F9",
"9 	c #88D6E2",
"0 	c #6CD6CF",
"a 	c #10D363",
"b 	c #0F960F",
"c 	c #1C5810",
"d 	c #426C38",
"e 	c #747295",
"f 	c #888572",
"g 	c #F1C100",
"h 	c #EFC500",
"i 	c #F18943",
"j 	c #1977CB",
"k 	c #2F1613",
"l 	c #A76A00",
"m 	c #FFB400",
"n 	c #C84D06",
"o 	c #3A4051",
"p 	c #384200",
"q 	c #AEE200",
"r 	c #CCFF00",
"s 	c #BEEB16",
"t 	c #3081A5",
"u 	c #0F5EAB",
"v 	c #427898",
"w 	c #FFFF1C",
"x 	c #B6E300",
"y 	c #5C6D5D",
"z 	c #B71C00",
"A 	c #B53C00",
"B 	c #812D00",
"C 	c #000306",
"D 	c #829F43",
"E 	c #337FBD",
"F 	c #0094CD",
"G 	c #0048BA",
"H 	c #0137C8",
"I 	c #718270",
"J 	c #461087",
"K 	c #3E0634",
"L 	c #050100",
"M 	c #59B3CB",
"N 	c #2F9CC7",
"O 	c #2670B4",
"P 	c #512180",
"Q 	c #592078",
"R 	c #582379",
"S 	c #2A0453",
"T 	c #000000",
"U 	c #3EBFD6",
"V 	c #0083AA",
"W 	c #334E95",
"X 	c #62317C",
"Y 	c #572E80",
"Z 	c #171EA2",
"` 	c #000007",
" .	c #003017",
"..	c #004792",
"+.	c #0078AA",
"@.	c #0030A6",
"#.	c #0013A3",
"$.	c #0014A3",
"%.	c #00149C",
"&.	c #006117",
"*.	c #00576C",
"=.	c #002987",
"-.	c #250F6E",
";.	c #25087D",
">.	c #0214A0",
",.	c #000C61",
"'.	c #008700",
").	c #189E0D",
"!.	c #5B6857",
"~.	c #012780",
"{.	c #0C207B",
"].	c #400066",
"^.	c #10001B",
"/.	c #0B2105",
"(.	c #9EBF2C",
"_.	c #B3CB34",
":.	c #EBE20D",
"<.	c #FEEA00",
"[.	c #FDD702",
"}.	c #CBA614",
"|.	c #68BA5F",
"1.	c #67B359",
"2.	c #65AF56",
"3.	c #4E9D6B",
"4.	c #33B9BF",
"5.	c #9ECBFF",
"6.	c #4A93D2",
"7.	c #0E420C",
"8.	c #7CC41F",
"9.	c #E2A40E",
"0.	c #FE9B09",
"a.	c #FF9907",
"b.	c #D9B026",
"c.	c #9BC54F",
"d.	c #75CC66",
"e.	c #76CC65",
"f.	c #4EBEA7",
"g.	c #27C5C3",
"h.	c #2ECDE3",
"i.	c #62C9F1",
"j.	c #A3D575",
"k.	c #011328",
"l.	c #EFD300",
"m.	c #BA7303",
"n.	c #FF9A08",
"o.	c #C6BA34",
"p.	c #BEC03B",
"q.	c #83C95D",
"r.	c #66C77F",
"s.	c #48BDB2",
"t.	c #2CB190",
"u.	c #00C6C2",
"v.	c #34CEE4",
"w.	c #00C3BE",
"x.	c #AF5505",
"y.	c #FAB123",
"z.	c #8A6515",
"A.	c #0E2125",
"B.	c #303626",
"C.	c #FACD0A",
"D.	c #D2A100",
"E.	c #976500",
"F.	c #A1780C",
"G.	c #B8BE3C",
"H.	c #4DC3A7",
"I.	c #47B5AD",
"J.	c #30A88B",
"K.	c #009C48",
"L.	c #12732D",
"M.	c #245221",
"N.	c #1D8E92",
"O.	c #66632D",
"P.	c #A2451B",
"Q.	c #E87F0E",
"R.	c #B98043",
"S.	c #000008",
"T.	c #269FB6",
"U.	c #012025",
"V.	c #2D3121",
"W.	c #8C9B68",
"X.	c #C9B32C",
"Y.	c #A58300",
"Z.	c #2F6601",
"`.	c #0C4603",
" +	c #1E313B",
".+	c #0E161A",
"++	c #011B0F",
"@+	c #011509",
"#+	c #3D1D0F",
"$+	c #893B18",
"%+	c #D85A00",
"&+	c #C2764E",
"*+	c #5C3098",
"=+	c #1359D5",
"-+	c #4A7490",
";+	c #191831",
">+	c #393B7A",
",+	c #A2BA71",
"'+	c #AEE983",
")+	c #286106",
"!+	c #335200",
"~+	c #121A00",
"{+	c #1A0B04",
"]+	c #5F2B60",
"^+	c #3F469C",
"/+	c #0070CE",
"(+	c #0765A6",
"_+	c #3FB2FF",
":+	c #3C97F4",
"<+	c #BB696F",
"[+	c #683623",
"}+	c #338500",
"|+	c #36C10F",
"1+	c #009A24",
"2+	c #265D07",
"3+	c #1E3000",
"4+	c #3A1F42",
"5+	c #003060",
"6+	c #292742",
"7+	c #665472",
"8+	c #9A1B00",
"9+	c #D32E09",
"0+	c #8A290F",
"a+	c #00370F",
"b+	c #0FA11F",
"c+	c #00C736",
"d+	c #00B51C",
"e+	c #2A5900",
"f+	c #401700",
"g+	c #811900",
"h+	c #BC0D00",
"i+	c #C0520C",
"j+	c #00E43E",
"k+	c #00DB3D",
"l+	c #00B015",
"m+	c #009E00",
"n+	c #142600",
"o+	c #220C00",
"p+	c #782000",
"q+	c #A60600",
"r+	c #4E9928",
"s+	c #00A50D",
"t+	c #008200",
"u+	c #005A00",
"v+	c #521800",
"w+	c #EA1D00",
"x+	c #016200",
"y+	c #006200",
"z+	c #812200",
"A+	c #AA2700",
"B+	c #002200",
"C+	c #170000",
"                                                                ",
"                              . + @ # $                         ",
"                              % & * = - ;             >         ",
"                              , ' ) ! ~ {         ] ^ /         ",
"              ( _ :           < [ } | 1 2     3 4 5 6           ",
"            7 8 9 0 a b c d e f g h i j k l m n o               ",
"                    p q r s t u v w x y z A B C                 ",
"                        D E F G H I J K L                       ",
"                        M N O P Q R S                           ",
"                      T U V W X Y Z `                           ",
"                       ...+.@.#.$.%.                            ",
"                      &.*.=.-.;.>.,.                            ",
"                      '.).!.~.{.].^.                            ",
"                    /.(._.:.<.[.}.|.1.2.3.4.5.6.                ",
"                    7.8.9.0.a.b.c.d.e.f.g.h.i.j.k.              ",
"                      l.m.n.o.p.q.r.s.t.u.v.w.x.y.z.        A.  ",
"                    B.C.D.E.F.G.H.I.J.K.L.M.N.O.P.Q.R.S.    T.U.",
"                    V.W.X.Y.Z.`. +.+++@+        #+$+%+&+*+=+-+  ",
"      ;+>+            ,+'+)+!+~+                    {+]+^+/+    ",
"  (+_+:+<+[+        }+|+1+2+3+                          4+5+    ",
"      6+7+8+9+0+  a+b+c+d+e+                                    ",
"          f+g+h+i+j+k+l+m+n+                                    ",
"            o+p+q+r+s+t+u+                                      ",
"                v+w+x+y+                                        ",
"                  z+A+B+                                        ",
"                    C+                                          "};
