<?xml version="1.0" encoding="UTF-8" standalone="no"?>
<!-- Created with Inkscape (http://www.inkscape.org/) -->

<svg
   xmlns:dc="http://purl.org/dc/elements/1.1/"
   xmlns:cc="http://creativecommons.org/ns#"
   xmlns:rdf="http://www.w3.org/1999/02/22-rdf-syntax-ns#"
   xmlns:svg="http://www.w3.org/2000/svg"
   xmlns="http://www.w3.org/2000/svg"
   xmlns:sodipodi="http://sodipodi.sourceforge.net/DTD/sodipodi-0.dtd"
   xmlns:inkscape="http://www.inkscape.org/namespaces/inkscape"
   width="32px"
   height="32px"
   id="svg4177"
   version="1.1"
   inkscape:version="0.48.4 r9939"
   sodipodi:docname="gear.svg">
  <defs
     id="defs4179" />
  <sodipodi:namedview
     id="base"
     pagecolor="#ffffff"
     bordercolor="#666666"
     borderopacity="1.0"
     inkscape:pageopacity="0.0"
     inkscape:pageshadow="2"
     inkscape:zoom="11.197802"
     inkscape:cx="11.400883"
     inkscape:cy="17.428852"
     inkscape:current-layer="layer1"
     showgrid="true"
     inkscape:grid-bbox="true"
     inkscape:document-units="px"
     inkscape:window-width="962"
     inkscape:window-height="797"
     inkscape:window-x="874"
     inkscape:window-y="135"
     inkscape:window-maximized="0" />
  <metadata
     id="metadata4182">
    <rdf:RDF>
      <cc:Work
         rdf:about="">
        <dc:format>image/svg+xml</dc:format>
        <dc:type
           rdf:resource="http://purl.org/dc/dcmitype/StillImage" />
        <dc:title></dc:title>
      </cc:Work>
    </rdf:RDF>
  </metadata>
  <g
     id="layer1"
     inkscape:label="Layer 1"
     inkscape:groupmode="layer">
    <path
       style="font-size:72px;font-style:normal;font-variant:normal;font-weight:normal;font-stretch:normal;text-align:start;line-height:125%;letter-spacing:0px;word-spacing:0px;writing-mode:lr-tb;text-anchor:start;fill:#000000;fill-opacity:1;stroke:none;font-family:FontAwesome;-inkscape-font-specification:FontAwesome"
       id="path3123"
       d="m 19.299476,19.29948 c 0.911441,-0.91145 1.367172,-2.011273 1.36719,-3.299478 -1.8e-5,-1.288183 -0.455749,-2.388006 -1.36719,-3.299479 -0.911473,-0.911445 -2.0113,-1.367172 -3.299478,-1.36719 -1.288206,1.8e-5 -2.388033,0.455745 -3.299479,1.36719 -0.911468,0.911473 -1.367195,2.011296 -1.367186,3.299479 -9e-6,1.288205 0.455718,2.388028 1.367186,3.299478 0.911446,0.911463 2.011273,1.367195 3.299479,1.367186 1.288178,9e-6 2.388005,-0.455723 3.299478,-1.367186 M 30,14.01302 l 0,4.046878 c -3.2e-5,0.145843 -0.04864,0.285597 -0.145834,0.419268 -0.09725,0.133692 -0.218781,0.212682 -0.364583,0.236978 l -3.372397,0.510417 c -0.230927,0.656259 -0.467905,1.209211 -0.710936,1.658854 0.42532,0.607645 1.075496,1.446189 1.950518,2.515628 0.121501,0.145838 0.182266,0.297747 0.182293,0.455727 -2.7e-5,0.157989 -0.05471,0.297747 -0.164064,0.419272 -0.32815,0.449657 -0.929711,1.105903 -1.804688,1.968747 -0.875022,0.862849 -1.446203,1.294272 -1.713539,1.294272 -0.145856,0 -0.30384,-0.05468 -0.473961,-0.16406 L 20.867185,25.40625 c -0.534739,0.279517 -1.087691,0.510416 -1.658854,0.69271 -0.194462,1.652774 -0.370676,2.782982 -0.528646,3.390623 -0.08508,0.340277 -0.303836,0.510416 -0.656251,0.510416 l -4.046873,0 c -0.170148,0 -0.322062,-0.05469 -0.455727,-0.164064 -0.121543,-0.09722 -0.188383,-0.224828 -0.200524,-0.382812 L 12.809894,26.09896 c -0.595496,-0.194444 -1.142372,-0.419272 -1.640625,-0.674481 l -2.5703126,1.950522 c -0.1215336,0.109375 -0.2734427,0.16406 -0.4557272,0.16406 -0.1701434,0 -0.322057,-0.06684 -0.4557317,-0.200519 C 6.1562431,25.953126 5.1536442,24.932293 4.6796872,24.276042 4.5946132,24.154517 4.5520785,24.014759 4.552083,23.85677 4.5520785,23.71094 4.6006928,23.571186 4.697917,23.437498 4.880206,23.182294 5.1900993,22.781256 5.6276057,22.234376 6.0650985,21.675354 6.3932261,21.243931 6.6119793,20.940104 6.2838472,20.332472 6.0347185,19.730911 5.8645842,19.135416 L 2.5286463,18.643229 C 2.3706576,18.618911 2.2430535,18.546014 2.1458338,18.424481 2.0486097,18.29081 1.9999999,18.144976 1.9999999,17.986979 l 0,-4.046874 c 0,-0.14582 0.04861,-0.285574 0.1458339,-0.419272 0.09722,-0.133665 0.2126736,-0.21266 0.3463529,-0.236978 L 5.882814,12.773438 C 6.0529484,12.214425 6.2899269,11.655399 6.5937495,11.096354 6.1076333,10.403662 5.4574623,9.5651225 4.6432275,8.5807307 4.5216985,8.4349149 4.4609339,8.2890809 4.4609385,8.1432288 4.4609339,8.0217224 4.5156234,7.8819635 4.6249977,7.7239612 4.9409706,7.286482 5.5364521,6.6363065 6.4114559,5.7734392 7.2986054,4.8984626 7.8758617,4.4609607 8.1432292,4.460938 c 0.1579796,2.27e-5 0.3159638,0.060787 0.473957,0.1822936 L 11.13281,6.5937491 c 0.534712,-0.2794906 1.087664,-0.510394 1.658854,-0.6927057 0.194434,-1.6527563 0.370648,-2.7829639 0.528646,-3.3906274 0.08506,-0.3402505 0.303809,-0.5103894 0.656251,-0.5104166 l 4.046873,0 c 0.170125,2.72e-5 0.315959,0.054717 0.437502,0.1640638 0.133666,0.097247 0.20658,0.224851 0.218749,0.3828125 l 0.510416,3.3541677 c 0.595468,0.1944665 1.142345,0.4192902 1.640625,0.6744804 l 2.588542,-1.950522 c 0.109357,-0.1093516 0.255186,-0.1640411 0.437502,-0.1640638 0.157962,2.27e-5 0.309871,0.060787 0.455728,0.1822936 1.567686,1.4462032 2.57029,2.4791866 3.007814,3.0989549 0.08504,0.097242 0.127577,0.2309261 0.127605,0.4010423 -2.8e-5,0.1458521 -0.04864,0.285611 -0.145834,0.4192721 -0.182317,0.2552264 -0.492214,0.6623438 -0.929689,1.2213521 -0.437525,0.546894 -0.765648,0.972242 -0.984374,1.276042 0.315946,0.607659 0.565079,1.20314 0.747395,1.786458 l 3.335938,0.510416 c 0.157957,0.02432 0.285561,0.103313 0.382813,0.236983 0.09719,0.121539 0.145802,0.261297 0.145834,0.419268"
       inkscape:connector-curvature="0" />
  </g>
</svg>
