<?xml version="1.0" encoding="UTF-8" standalone="no"?>
<!-- Created with Inkscape (http://www.inkscape.org/) -->

<svg
   xmlns:dc="http://purl.org/dc/elements/1.1/"
   xmlns:cc="http://creativecommons.org/ns#"
   xmlns:rdf="http://www.w3.org/1999/02/22-rdf-syntax-ns#"
   xmlns:svg="http://www.w3.org/2000/svg"
   xmlns="http://www.w3.org/2000/svg"
   xmlns:sodipodi="http://sodipodi.sourceforge.net/DTD/sodipodi-0.dtd"
   xmlns:inkscape="http://www.inkscape.org/namespaces/inkscape"
   width="32px"
   height="32px"
   id="svg3069"
   version="1.1"
   inkscape:version="0.91 r13725"
   sodipodi:docname="planet.svg">
  <defs
     id="defs3071" />
  <sodipodi:namedview
     id="base"
     pagecolor="#ffffff"
     bordercolor="#666666"
     borderopacity="1.0"
     inkscape:pageopacity="0.0"
     inkscape:pageshadow="2"
     inkscape:zoom="11.197802"
     inkscape:cx="-15.657999"
     inkscape:cy="16"
     inkscape:current-layer="layer1"
     showgrid="true"
     inkscape:grid-bbox="true"
     inkscape:document-units="px"
     inkscape:window-width="1879"
     inkscape:window-height="1056"
     inkscape:window-x="1961"
     inkscape:window-y="24"
     inkscape:window-maximized="1" />
  <metadata
     id="metadata3074">
    <rdf:RDF>
      <cc:Work
         rdf:about="">
        <dc:format>image/svg+xml</dc:format>
        <dc:type
           rdf:resource="http://purl.org/dc/dcmitype/StillImage" />
        <dc:title></dc:title>
      </cc:Work>
    </rdf:RDF>
  </metadata>
  <g
     id="layer1"
     inkscape:label="Layer 1"
     inkscape:groupmode="layer">
    <path
       inkscape:connector-curvature="0"
       d="M 25.899531,6.1005234 C 28.543727,8.7447734 30,12.260523 30,16.000055 30,19.739586 28.543727,23.255281 25.899531,25.899531 23.255227,28.543727 19.739531,30 16,30 12.260469,30 8.7447734,28.543727 6.1004687,25.899531 3.4562734,23.255281 2,19.739586 2,16.000055 2,12.260523 3.4561641,8.7447734 6.1004687,6.1005234 8.7447734,3.4562734 12.260469,2 16,2 c 3.739531,0 7.255227,1.4562734 9.899531,4.1005234 z M 24.662062,24.662117 c 1.724243,-1.724297 2.870711,-3.872094 3.343375,-6.208726 -0.368429,0.54239 -0.720835,0.743586 -0.939093,-0.470477 -0.224766,-1.979414 -2.042797,-0.714984 -3.185985,-1.418047 -1.203234,0.810961 -3.907586,-1.576695 -3.447992,1.116281 0.709133,1.214664 3.828344,-1.625586 2.273578,0.944508 -0.991867,1.794188 -3.626929,5.767672 -3.284148,7.827367 0.04326,3.000813 -3.066164,0.625735 -4.137492,-0.369687 -0.720672,-1.993906 -0.245602,-5.478977 -2.130024,-6.455477 -2.045367,-0.08881 -3.8008904,-0.274695 -4.5935857,-2.561289 -0.477039,-1.635922 0.5076094,-4.07132 2.2607267,-4.447297 2.566211,-1.612351 3.482883,1.888196 5.88957,1.953274 0.74725,-0.781867 2.784031,-1.030477 2.952906,-1.907227 -1.579101,-0.278633 2.003422,-1.327758 -0.151156,-1.924508 -1.188633,0.139782 -1.954476,1.232493 -1.322562,2.159008 -2.303383,0.537086 -2.377157,-3.3333122 -4.591289,-2.112523 -0.05627,1.930195 -3.6154457,0.625789 -1.231454,0.23439 0.81911,-0.357875 -1.336015,-1.3949683 -0.171718,-1.2065151 0.571922,-0.031062 2.497359,-0.7057969 1.976297,-1.1594297 1.072148,-0.6655469 1.973125,1.5938668 3.022523,-0.051461 C 17.95218,7.3391953 16.876805,7.105625 15.927156,7.7468906 15.391766,7.1474062 16.87243,5.852625 18.178422,5.2931172 18.61368,5.1066328 19.029414,5.0050234 19.347258,5.0337891 20.005094,5.7937266 21.221672,5.9253594 21.285328,4.9424062 19.656133,4.1621797 17.859812,3.75 16,3.75 13.330648,3.75 10.791836,4.5983125 8.6907969,6.1669141 9.2554453,6.4255859 9.5759688,6.7476406 9.0319922,7.1593828 8.6093672,8.4186719 6.8945312,10.109117 5.3891484,9.8698047 4.6075,11.217742 4.0927266,12.702781 3.8726641,14.259242 c 1.260875,0.417156 1.5515937,1.242774 1.2806718,1.518946 -0.6424687,0.560218 -1.0373125,1.354335 -1.24075,2.223648 0.4104297,2.511141 1.5906407,4.825516 3.4253516,6.660281 C 9.6516563,26.975781 12.727883,28.25 16,28.25 c 3.272062,0 6.348344,-1.274219 8.662062,-3.587883 z"
       id="path67" />
  </g>
</svg>
