<?xml version="1.0" encoding="utf-8"?>
<!-- Generator: Adobe Illustrator 16.0.4, SVG Export Plug-In . SVG Version: 6.00 Build 0)  -->
<!DOCTYPE svg PUBLIC "-//W3C//DTD SVG 1.1//EN" "http://www.w3.org/Graphics/SVG/1.1/DTD/svg11.dtd">
<svg version="1.1" id="Layer_1" xmlns="http://www.w3.org/2000/svg" xmlns:xlink="http://www.w3.org/1999/xlink" x="0px" y="0px"
	 width="509.707px" height="142.439px" viewBox="0 0 509.707 142.439" enable-background="new 0 0 509.707 142.439"
	 xml:space="preserve">
<g>
	<path fill="#F9A731" d="M0,35.469v71.365l62.837,35.605l62.833-35.605V35.469L62.813,0L0,35.469z M60.262,116.617L23.735,96.332
		V52.46l36.586,20.999L60.262,116.617z M101.936,96.332l-36.148,20.285l0.067-43.123l36.081-21.034V96.332z M101.936,46.44
		L62.951,69.553L23.733,46.44l39.218-21.131L101.936,46.44z"/>
	<path fill="#F9A731" d="M169.505,42.332h-19.968v59.328h13.52V79.655h6.448c11.579,0,20.279-6.832,20.279-19.056
		C189.784,48.302,181.084,42.332,169.505,42.332z M166.866,68.868h-3.809v-15.75h3.809c5.323,0,10.357,1.798,10.357,7.91
		C177.224,67.07,172.189,68.868,166.866,68.868z"/>
	<rect x="194.309" y="42.332" fill="#F9A731" width="13.52" height="59.328"/>
	<polygon fill="#F9A731" points="266.516,42.332 249.689,42.332 238.759,58.514 227.827,42.332 211.721,42.332 230.417,69.73 
		210.228,101.66 226.982,101.66 238.759,81.453 250.534,101.66 268.01,101.66 247.099,69.73 	"/>
	<polygon fill="#F9A731" points="270.128,101.66 304.069,101.66 304.069,89.795 283.647,89.795 283.647,77.857 303.207,77.857 
		303.207,65.991 283.647,65.991 283.647,54.199 304.069,54.199 304.069,42.332 270.128,42.332 	"/>
	<path fill="#F9A731" d="M354.807,42.332l-19.156,47.463H322.33V42.332h-13.52v59.328h22.053h11.888h2.636l4.386-11.865h22.578
		l4.391,11.865h14.524l-23.944-59.328H354.807z M354.377,77.928l6.614-17.257h0.145l6.615,17.257H354.377z"/>
	<polygon fill="#F9A731" points="379.939,54.199 394.073,54.199 394.073,101.66 407.592,101.66 407.592,54.199 421.687,54.199 
		421.687,42.332 379.939,42.332 	"/>
	<polygon fill="#F9A731" points="426.265,101.66 460.207,101.66 460.207,89.795 439.785,89.795 439.785,77.857 459.344,77.857 
		459.344,65.991 439.785,65.991 439.785,54.199 460.207,54.199 460.207,42.332 426.265,42.332 	"/>
	<path fill="#F9A731" d="M479.792,42.332h-14.94v59.328h14.94c16.324,0,29.914-12.37,29.914-29.699
		C509.707,54.701,496.044,42.332,479.792,42.332z M480.457,89.577h-2.084V54.414h2.084c10.067,0,16.9,7.695,16.9,17.619
		C497.285,81.955,490.455,89.577,480.457,89.577z"/>
</g>
</svg>
